<svg width="12" height="12" viewBox="0 0 12 12" fill="none" xmlns="http://www.w3.org/2000/svg">
<path d="M9.62 2.79003H9.42L7.73 1.10003C7.595 0.965029 7.375 0.965029 7.235 1.10003C7.1 1.23503 7.1 1.45503 7.235 1.59503L8.43 2.79003H3.57L4.765 1.59503C4.9 1.46003 4.9 1.24003 4.765 1.10003C4.63 0.965029 4.41 0.965029 4.27 1.10003L2.585 2.79003H2.385C1.935 2.79003 1 2.79003 1 4.07003C1 4.55503 1.1 4.87503 1.31 5.08503C1.43 5.21003 1.575 5.27503 1.73 5.31003C1.875 5.34503 2.03 5.35003 2.18 5.35003H9.82C9.975 5.35003 10.12 5.34003 10.26 5.31003C10.68 5.21003 11 4.91003 11 4.07003C11 2.79003 10.065 2.79003 9.62 2.79003Z" fill="#999999"/>
<path d="M9.52508 6H2.43508C2.12508 6 1.89008 6.275 1.94008 6.58L2.36008 9.15C2.50008 10.01 2.87508 11 4.54008 11H7.34508C9.03008 11 9.33008 10.155 9.51008 9.21L10.0151 6.595C10.0751 6.285 9.84008 6 9.52508 6ZM5.30508 9.225C5.30508 9.42 5.15008 9.575 4.96008 9.575C4.76508 9.575 4.61008 9.42 4.61008 9.225V7.575C4.61008 7.385 4.76508 7.225 4.96008 7.225C5.15008 7.225 5.30508 7.385 5.30508 7.575V9.225ZM7.44508 9.225C7.44508 9.42 7.29008 9.575 7.09508 9.575C6.90508 9.575 6.74508 9.42 6.74508 9.225V7.575C6.74508 7.385 6.90508 7.225 7.09508 7.225C7.29008 7.225 7.44508 7.385 7.44508 7.575V9.225Z" fill="#999999"/>
</svg>
