<svg width="12" height="12" viewBox="0 0 12 12" fill="none" xmlns="http://www.w3.org/2000/svg">
<path d="M9.62 2.79003H9.42L7.73 1.10003C7.595 0.965029 7.375 0.965029 7.235 1.10003C7.1 1.23503 7.1 1.45503 7.235 1.59503L8.43 2.79003H3.57L4.765 1.59503C4.9 1.46003 4.9 1.24003 4.765 1.10003C4.63 0.965029 4.41 0.965029 4.27 1.10003L2.585 2.79003H2.385C1.935 2.79003 1 2.79003 1 4.07003C1 4.55503 1.1 4.87503 1.31 5.08503C1.43 5.21003 1.575 5.27503 1.73 5.31003C1.875 5.34503 2.03 5.35003 2.18 5.35003H9.82C9.975 5.35003 10.12 5.34003 10.26 5.31003C10.68 5.21003 11 4.91003 11 4.07003C11 2.79003 10.065 2.79003 9.62 2.79003Z" fill="#1FA46C"/>
<path d="M9.52483 6H2.43483C2.12483 6 1.88983 6.275 1.93983 6.58L2.35983 9.15C2.49983 10.01 2.87483 11 4.53983 11H7.34483C9.02983 11 9.32983 10.155 9.50983 9.21L10.0148 6.595C10.0748 6.285 9.83983 6 9.52483 6ZM5.30483 9.225C5.30483 9.42 5.14983 9.575 4.95983 9.575C4.76483 9.575 4.60983 9.42 4.60983 9.225V7.575C4.60983 7.385 4.76483 7.225 4.95983 7.225C5.14983 7.225 5.30483 7.385 5.30483 7.575V9.225ZM7.44483 9.225C7.44483 9.42 7.28983 9.575 7.09483 9.575C6.90483 9.575 6.74483 9.42 6.74483 9.225V7.575C6.74483 7.385 6.90483 7.225 7.09483 7.225C7.28983 7.225 7.44483 7.385 7.44483 7.575V9.225Z" fill="#1FA46C"/>
</svg>
