<svg width="14" height="14" viewBox="0 0 14 14" fill="none" xmlns="http://www.w3.org/2000/svg">
<path d="M9.81757 9.1233C10.2084 8.86663 10.7217 9.14663 10.7217 9.6133V10.3658C10.7217 11.1066 10.1442 11.9 9.45007 12.1333L7.58924 12.7516C7.26257 12.8625 6.73174 12.8625 6.4109 12.7516L4.55007 12.1333C3.85007 11.9 3.2784 11.1066 3.2784 10.3658V9.60747C3.2784 9.14663 3.79174 8.86663 4.17674 9.11747L5.3784 9.89913C5.83924 10.2083 6.42257 10.36 7.0059 10.36C7.58924 10.36 8.17257 10.2083 8.6334 9.89913L9.81757 9.1233Z" fill="#1FA46C"/>
<path d="M11.655 3.76841L8.16084 1.47591C7.53084 1.06174 6.49251 1.06174 5.86251 1.47591L2.35084 3.76841C1.22501 4.49757 1.22501 6.14841 2.35084 6.88341L3.28418 7.49007L5.86251 9.17007C6.49251 9.58424 7.53084 9.58424 8.16084 9.17007L10.7217 7.49007L11.5208 6.96507V8.75007C11.5208 8.98924 11.7192 9.18757 11.9583 9.18757C12.1975 9.18757 12.3958 8.98924 12.3958 8.75007V5.88007C12.6292 5.12757 12.39 4.25257 11.655 3.76841Z" fill="#1FA46C"/>
</svg>
