<svg width="14" height="14" viewBox="0 0 14 14" fill="none" xmlns="http://www.w3.org/2000/svg">
<path d="M12.8334 12.3958H12.25V5.82167C12.25 5.46 12.0867 5.12167 11.8009 4.9L11.0834 4.34L11.0717 2.91084C11.0717 2.59 10.8092 2.33334 10.4884 2.33334H8.49919L7.71752 1.72667C7.29752 1.39417 6.70252 1.39417 6.28252 1.72667L2.19919 4.9C1.91335 5.12167 1.75002 5.46 1.75002 5.81584L1.72085 12.3958H1.16669C0.92752 12.3958 0.729187 12.5942 0.729187 12.8333C0.729187 13.0725 0.92752 13.2708 1.16669 13.2708H12.8334C13.0725 13.2708 13.2709 13.0725 13.2709 12.8333C13.2709 12.5942 13.0725 12.3958 12.8334 12.3958ZM3.79169 7.4375V6.5625C3.79169 6.24167 4.05419 5.97917 4.37502 5.97917H5.54169C5.86252 5.97917 6.12502 6.24167 6.12502 6.5625V7.4375C6.12502 7.75834 5.86252 8.02084 5.54169 8.02084H4.37502C4.05419 8.02084 3.79169 7.75834 3.79169 7.4375ZM8.45835 12.3958H5.54169V10.7917C5.54169 10.3075 5.93252 9.91667 6.41669 9.91667H7.58335C8.06752 9.91667 8.45835 10.3075 8.45835 10.7917V12.3958ZM10.2084 7.4375C10.2084 7.75834 9.94585 8.02084 9.62502 8.02084H8.45835C8.13752 8.02084 7.87502 7.75834 7.87502 7.4375V6.5625C7.87502 6.24167 8.13752 5.97917 8.45835 5.97917H9.62502C9.94585 5.97917 10.2084 6.24167 10.2084 6.5625V7.4375Z" fill="black"/>
</svg>
