<svg width="14" height="14" viewBox="0 0 14 14" fill="none" xmlns="http://www.w3.org/2000/svg">
<path d="M12.8333 12.3958H12.25V5.82167C12.25 5.46 12.0867 5.12167 11.8008 4.9L11.0833 4.34L11.0717 2.91084C11.0717 2.59 10.8092 2.33334 10.4883 2.33334H8.49916L7.7175 1.72667C7.2975 1.39417 6.7025 1.39417 6.2825 1.72667L2.19916 4.9C1.91333 5.12167 1.75 5.46 1.75 5.81584L1.72083 12.3958H1.16666C0.927497 12.3958 0.729164 12.5942 0.729164 12.8333C0.729164 13.0725 0.927497 13.2708 1.16666 13.2708H12.8333C13.0725 13.2708 13.2708 13.0725 13.2708 12.8333C13.2708 12.5942 13.0725 12.3958 12.8333 12.3958ZM3.79166 7.4375V6.5625C3.79166 6.24167 4.05416 5.97917 4.375 5.97917H5.54166C5.8625 5.97917 6.125 6.24167 6.125 6.5625V7.4375C6.125 7.75834 5.8625 8.02084 5.54166 8.02084H4.375C4.05416 8.02084 3.79166 7.75834 3.79166 7.4375ZM8.45833 12.3958H5.54166V10.7917C5.54166 10.3075 5.9325 9.91667 6.41666 9.91667H7.58333C8.0675 9.91667 8.45833 10.3075 8.45833 10.7917V12.3958ZM10.2083 7.4375C10.2083 7.75834 9.94583 8.02084 9.625 8.02084H8.45833C8.1375 8.02084 7.875 7.75834 7.875 7.4375V6.5625C7.875 6.24167 8.1375 5.97917 8.45833 5.97917H9.625C9.94583 5.97917 10.2083 6.24167 10.2083 6.5625V7.4375Z" fill="#1FA46C"/>
</svg>
