<svg width="14" height="14" viewBox="0 0 14 14" fill="none" xmlns="http://www.w3.org/2000/svg">
<path d="M9.91667 1.1665H4.08333C2.8 1.1665 1.75 2.2165 1.75 3.49984V10.4998C1.75 11.7832 2.8 12.8332 4.08333 12.8332H9.91667C11.2 12.8332 12.25 11.7832 12.25 10.4998V3.49984C12.25 2.2165 11.2 1.1665 9.91667 1.1665ZM6.335 10.5815C6.2475 10.669 6.13667 10.7098 6.02583 10.7098C5.915 10.7098 5.80417 10.669 5.71667 10.5815L5.3375 10.2023L4.97583 10.564C4.88833 10.6515 4.7775 10.6923 4.66667 10.6923C4.55583 10.6923 4.445 10.6515 4.3575 10.564C4.18833 10.3948 4.18833 10.1148 4.3575 9.94567L4.71917 9.584L4.375 9.23984C4.20583 9.07067 4.20583 8.79067 4.375 8.6215C4.54417 8.45234 4.82417 8.45234 4.99333 8.6215L5.3375 8.96567L5.69917 8.604C5.86833 8.43484 6.14833 8.43484 6.3175 8.604C6.48667 8.77317 6.48667 9.05317 6.3175 9.22234L5.95583 9.584L6.335 9.96317C6.50417 10.1323 6.50417 10.4123 6.335 10.5815ZM8.4525 10.7857C8.13167 10.7857 7.86917 10.529 7.86917 10.2082V10.1965C7.86917 9.87567 8.13167 9.61317 8.4525 9.61317C8.77333 9.61317 9.03583 9.87567 9.03583 10.1965C9.03583 10.5173 8.77333 10.7857 8.4525 10.7857ZM9.63083 9.52567C9.31 9.52567 9.04167 9.26317 9.04167 8.94234C9.04167 8.6215 9.29833 8.359 9.61917 8.359H9.63083C9.95167 8.359 10.2142 8.6215 10.2142 8.94234C10.2142 9.26317 9.95167 9.52567 9.63083 9.52567ZM10.5 5.39567C10.5 5.95567 10.0392 6.4165 9.47917 6.4165H4.52083C3.96083 6.4165 3.5 5.95567 3.5 5.39567V3.93734C3.5 3.37734 3.96083 2.9165 4.52083 2.9165H9.47917C10.0392 2.9165 10.5 3.37734 10.5 3.93734V5.39567Z" fill="black"/>
</svg>
