<svg width="14" height="14" viewBox="0 0 14 14" fill="none" xmlns="http://www.w3.org/2000/svg">
<path d="M9.91667 1.16663H4.08333C2.8 1.16663 1.75 2.21663 1.75 3.49996V10.5C1.75 11.7833 2.8 12.8333 4.08333 12.8333H9.91667C11.2 12.8333 12.25 11.7833 12.25 10.5V3.49996C12.25 2.21663 11.2 1.16663 9.91667 1.16663ZM6.335 10.5816C6.2475 10.6691 6.13667 10.71 6.02583 10.71C5.915 10.71 5.80417 10.6691 5.71667 10.5816L5.3375 10.2025L4.97583 10.5641C4.88833 10.6516 4.7775 10.6925 4.66667 10.6925C4.55583 10.6925 4.445 10.6516 4.3575 10.5641C4.18833 10.395 4.18833 10.115 4.3575 9.94579L4.71917 9.58413L4.375 9.23996C4.20583 9.07079 4.20583 8.79079 4.375 8.62163C4.54417 8.45246 4.82417 8.45246 4.99333 8.62163L5.3375 8.96579L5.69917 8.60413C5.86833 8.43496 6.14833 8.43496 6.3175 8.60413C6.48667 8.77329 6.48667 9.05329 6.3175 9.22246L5.95583 9.58413L6.335 9.96329C6.50417 10.1325 6.50417 10.4125 6.335 10.5816ZM8.4525 10.7858C8.13167 10.7858 7.86917 10.5291 7.86917 10.2083V10.1966C7.86917 9.87579 8.13167 9.61329 8.4525 9.61329C8.77333 9.61329 9.03583 9.87579 9.03583 10.1966C9.03583 10.5175 8.77333 10.7858 8.4525 10.7858ZM9.63083 9.52579C9.31 9.52579 9.04167 9.26329 9.04167 8.94246C9.04167 8.62163 9.29833 8.35913 9.61917 8.35913H9.63083C9.95167 8.35913 10.2142 8.62163 10.2142 8.94246C10.2142 9.26329 9.95167 9.52579 9.63083 9.52579ZM10.5 5.39579C10.5 5.95579 10.0392 6.41663 9.47917 6.41663H4.52083C3.96083 6.41663 3.5 5.95579 3.5 5.39579V3.93746C3.5 3.37746 3.96083 2.91663 4.52083 2.91663H9.47917C10.0392 2.91663 10.5 3.37746 10.5 3.93746V5.39579Z" fill="#1FA46C"/>
</svg>
