<svg width="14" height="14" viewBox="0 0 14 14" fill="none" xmlns="http://www.w3.org/2000/svg">
<path d="M9.33332 1.1665H4.66666C2.33332 1.1665 1.16666 2.33317 1.16666 4.6665V12.2498C1.16666 12.5707 1.42916 12.8332 1.74999 12.8332H9.33332C11.6667 12.8332 12.8333 11.6665 12.8333 9.33317V4.6665C12.8333 2.33317 11.6667 1.1665 9.33332 1.1665ZM8.16666 8.89567H4.08332C3.84416 8.89567 3.64582 8.69734 3.64582 8.45817C3.64582 8.219 3.84416 8.02067 4.08332 8.02067H8.16666C8.40582 8.02067 8.60416 8.219 8.60416 8.45817C8.60416 8.69734 8.40582 8.89567 8.16666 8.89567ZM9.91666 5.979H4.08332C3.84416 5.979 3.64582 5.78067 3.64582 5.5415C3.64582 5.30234 3.84416 5.104 4.08332 5.104H9.91666C10.1558 5.104 10.3542 5.30234 10.3542 5.5415C10.3542 5.78067 10.1558 5.979 9.91666 5.979Z" fill="black"/>
</svg>
