<svg width="14" height="14" viewBox="0 0 14 14" fill="none" xmlns="http://www.w3.org/2000/svg">
<path d="M12.6875 4.66659C12.6875 4.90576 12.4892 5.10409 12.25 5.10409H1.75C1.51083 5.10409 1.3125 4.90576 1.3125 4.66659C1.3125 4.42742 1.51083 4.22909 1.75 4.22909H2.345L2.56667 3.17326C2.77667 2.15242 3.21417 1.21326 4.9525 1.21326H9.0475C10.7858 1.21326 11.2233 2.15242 11.4333 3.17326L11.655 4.22909H12.25C12.4892 4.22909 12.6875 4.42742 12.6875 4.66659Z" fill="#1FA46C"/>
<path d="M12.9383 7.96829C12.8508 7.00579 12.5941 5.97913 10.7216 5.97913H3.27829C1.40579 5.97913 1.15496 7.00579 1.06162 7.96829L0.734956 11.5208C0.694123 11.9641 0.839956 12.4075 1.14329 12.74C1.45246 13.0783 1.88996 13.2708 2.35662 13.2708H3.45329C4.39829 13.2708 4.57912 12.7283 4.69579 12.3725L4.81246 12.0225C4.94662 11.62 4.98162 11.5208 5.50662 11.5208H8.49329C9.01829 11.5208 9.03579 11.5791 9.18746 12.0225L9.30412 12.3725C9.42079 12.7283 9.60162 13.2708 10.5466 13.2708H11.6433C12.1041 13.2708 12.5475 13.0783 12.8566 12.74C13.16 12.4075 13.3058 11.9641 13.265 11.5208L12.9383 7.96829ZM5.24996 9.18746H3.49996C3.26079 9.18746 3.06246 8.98913 3.06246 8.74996C3.06246 8.51079 3.26079 8.31246 3.49996 8.31246H5.24996C5.48912 8.31246 5.68746 8.51079 5.68746 8.74996C5.68746 8.98913 5.48912 9.18746 5.24996 9.18746ZM10.5 9.18746H8.74996C8.51079 9.18746 8.31246 8.98913 8.31246 8.74996C8.31246 8.51079 8.51079 8.31246 8.74996 8.31246H10.5C10.7391 8.31246 10.9375 8.51079 10.9375 8.74996C10.9375 8.98913 10.7391 9.18746 10.5 9.18746Z" fill="#1FA46C"/>
</svg>
