<svg width="14" height="14" viewBox="0 0 14 14" fill="none" xmlns="http://www.w3.org/2000/svg">
<path d="M12.6875 4.66671C12.6875 4.90588 12.4892 5.10421 12.25 5.10421H1.75C1.51083 5.10421 1.3125 4.90588 1.3125 4.66671C1.3125 4.42755 1.51083 4.22921 1.75 4.22921H2.345L2.56667 3.17338C2.77667 2.15255 3.21417 1.21338 4.9525 1.21338H9.0475C10.7858 1.21338 11.2233 2.15255 11.4333 3.17338L11.655 4.22921H12.25C12.4892 4.22921 12.6875 4.42755 12.6875 4.66671Z" fill="black"/>
<path d="M12.9383 7.96817C12.8508 7.00567 12.5941 5.979 10.7216 5.979H3.27828C1.40578 5.979 1.15495 7.00567 1.06162 7.96817L0.734948 11.5207C0.694115 11.964 0.839948 12.4073 1.14328 12.7398C1.45245 13.0782 1.88995 13.2707 2.35661 13.2707H3.45328C4.39828 13.2707 4.57911 12.7282 4.69578 12.3723L4.81245 12.0223C4.94661 11.6198 4.98161 11.5207 5.50661 11.5207H8.49328C9.01828 11.5207 9.03578 11.579 9.18745 12.0223L9.30411 12.3723C9.42078 12.7282 9.60161 13.2707 10.5466 13.2707H11.6433C12.1041 13.2707 12.5474 13.0782 12.8566 12.7398C13.1599 12.4073 13.3058 11.964 13.2649 11.5207L12.9383 7.96817ZM5.24995 9.18734H3.49995C3.26078 9.18734 3.06245 8.989 3.06245 8.74984C3.06245 8.51067 3.26078 8.31234 3.49995 8.31234H5.24995C5.48911 8.31234 5.68745 8.51067 5.68745 8.74984C5.68745 8.989 5.48911 9.18734 5.24995 9.18734ZM10.4999 9.18734H8.74995C8.51078 9.18734 8.31245 8.989 8.31245 8.74984C8.31245 8.51067 8.51078 8.31234 8.74995 8.31234H10.4999C10.7391 8.31234 10.9374 8.51067 10.9374 8.74984C10.9374 8.989 10.7391 9.18734 10.4999 9.18734Z" fill="black"/>
</svg>
